[img]http://img810.imageshack.us/img810/5290/posterii.jpg[/img]

[code]
Scream 4 2011 TS V2 READNFO XViD - IMAGiNE

Ripper ...........: IMAGiNE          IMDB Rating.......:7.5/10                             
Video Codec.......: XVID             Release Date......:18/04/11
Audio Codec.......:MP3               Theatre Date......:15/04/11
Audio Bitrate.....:128               Runtime.......:1h 20mn
Subtitles.........:NIL               Language..........:ENGLISH
Resolution...... 720 x 304           IMDb URL.......... http://www.imdb.com/title/tt1262416/

DETAILS:

Video
ID                               : 0
Format                           : MPEG-4 Visual
Format profile                   : Advanced Simple@L5
Format settings, BVOP            : 2
Format settings, QPel            : No
Format settings, GMC             : No warppoints
Format settings, Matrix          : Default (MPEG)
Muxing mode                      : Packed bitstream
Codec ID                         : XVID
Codec ID/Hint                    : XviD
Duration                         : 1h 43mn
Bit rate                         : 1 762 Kbps
Width                            : 720 pixels
Height                           : 304 pixels
Display aspect ratio             : 2.35:1
Frame rate                       : 25.000 fps
Color space                      : YUV
Chroma subsampling               : 4:2:0
Bit depth                        : 8 bits
Scan type                        : Progressive
Compression mode                 : Lossy
Bits/(Pixel*Frame)               : 0.322
Stream size                      : 1.27 GiB (93%)
Writing library                  : XviD 61

Audio
ID                               : 1
Format                           : MPEG Audio
Format version                   : Version 1
Format profile                   : Layer 3
Mode                             : Joint stereo
Mode extension                   : MS Stereo
Codec ID                         : 55
Codec ID/Hint                    : MP3
Duration                         : 1h 43mn
Bit rate mode                    : Constant
Bit rate                         : 128 Kbps
Channel(s)                       : 2 channels
Sampling rate                    : 44.1 KHz
Compression mode                 : Lossy
Stream size                      : 94.6 MiB (7%)
Alignment                        : Split accross interleaves
Interleave, duration             : 40 ms (1.00 video frame)


SOURCES:
VIDEO:...... ADDiCTED Thanx 
AUDIO:...... Thanx mate 

NOTES:
IMAGiNE bringing you another release..........

Scream 4 Version 2........

Ok now here we are with V2 of Scream 4, thanx to ADDiCTED for sending us the source files which were very nice to begin with........

So we straightened the video out as it was shot at an angle, then cropped and resized.......

wrote up a script to sharpen, level out the brightness and yada yada Audio is same LiNE from V1 filtered synced and muxed to our encode....
Overall a very nice release here if we may say so ourselfs 

Enjoy Folks 
[/code]
Screens:
[img]http://img813.imageshack.us/img813/8287/14632241.jpg[/img]
[img]http://img842.imageshack.us/img842/8185/85227760.jpg[/img]
[img]http://img857.imageshack.us/img857/8247/97129833.jpg[/img]
[img]http://img140.imageshack.us/img140/173/12928136.jpg[/img]
[img]http://img848.imageshack.us/img848/425/77824511.jpg[/img]
[img]http://img194.imageshack.us/img194/5923/69483427.jpg[/img]
[img]http://img706.imageshack.us/img706/1792/34231143.jpg[/img]